<svg version="1.0" xmlns="http://www.w3.org/2000/svg"
 width="200.000000pt" height="200.000000pt" viewBox="0 0 200.000000 200.000000"
 preserveAspectRatio="xMidYMid meet">

<g transform="translate(0.000000,200.000000) scale(0.100000,-0.100000)"
fill="#000000" stroke="none">
<path d="M0 1000 l0 -1000 1000 0 1000 0 0 1000 0 1000 -1000 0 -1000 0 0
-1000z m965 384 c27 -10 65 -34 87 -56 l39 -39 43 38 c24 21 65 46 92 56 55
19 153 21 201 4 50 -19 116 -79 143 -133 25 -48 25 -52 28 -342 3 -218 1 -297
-8 -308 -17 -19 -238 -21 -245 -1 -3 6 -6 122 -8 257 -2 263 -6 287 -54 309
-43 20 -82 13 -114 -18 -28 -28 -29 -33 -29 -120 0 -115 -8 -123 -131 -120
-138 3 -133 -1 -140 111 -8 111 -24 144 -75 154 -98 18 -134 -34 -134 -192 0
-29 -4 -55 -8 -58 -5 -3 -62 -6 -127 -7 -89 -1 -120 2 -126 12 -5 8 -9 107 -9
221 l0 208 25 16 c19 13 44 15 120 12 102 -3 115 -9 115 -57 l0 -24 23 21 c69
65 194 89 292 56z m-317 -557 c13 -15 19 -207 8 -225 -10 -17 -237 -17 -254 0
-13 13 -17 195 -4 214 12 19 34 22 138 23 71 1 105 -3 112 -12z m475 0 c15
-11 17 -27 15 -122 l-3 -110 -124 -3 c-70 -1 -129 2 -134 7 -14 14 -9 224 6
233 21 13 221 9 240 -5z m180 -322 c-3 -9 -8 -14 -10 -11 -3 3 -2 9 2 15 9 16
15 13 8 -4z m-125 -160 c-3 -3 -9 2 -12 12 -6 14 -5 15 5 6 7 -7 10 -15 7 -18z
m-44 -33 c3 -5 -1 -9 -9 -9 -8 0 -12 4 -9 9 3 4 7 8 9 8 2 0 6 -4 9 -8z m-74
-67 c0 -5 -5 -3 -10 5 -5 8 -10 20 -10 25 0 6 5 3 10 -5 5 -8 10 -19 10 -25z
m-20 -39 c0 -2 -8 -10 -17 -17 -16 -13 -17 -12 -4 4 13 16 21 21 21 13z m-134
-85 c-10 -11 -15 -25 -10 -32 4 -8 3 -10 -4 -5 -16 10 -15 22 4 40 22 23 30
20 10 -3z"/>
</g>
</svg>
